# xmcd
#
# Track frame offsets: 
#        150
#        19515
#        37939
#        53686
#        69746
#        85734
#        104671
#        119277
#        135206
#        150705
#
# Disc length: 2412 seconds
#
# Revision: 0
# Processed by: cddbd v1.5.2PL0 Copyright (c) Steve Scherf et al.
# Submitted via: ExactAudioCopy v0.95b4
#
DISCID=75096a0a
DTITLE=Wisdom - Judas
DYEAR=2011
DGENRE=Power Metal
TTITLE0=Fallin' Away From Grace
TTITLE1=Somewhere Alone
TTITLE2=Age Of Lies
TTITLE3=Live Forevermore
TTITLE4=Wander The World
TTITLE5=Heaven And Hell
TTITLE6=Silent Hill
TTITLE7=At The Gates
TTITLE8=The Prodigal Son
TTITLE9=Judas
EXTD=
EXTT0=
EXTT1=
EXTT2=
EXTT3=
EXTT4=
EXTT5=
EXTT6=
EXTT7=
EXTT8=
EXTT9=
PLAYORDER=
